<?xml version="1.0" encoding="utf-8"?>
<!-- Generator: Adobe Illustrator 16.0.0, SVG Export Plug-In . SVG Version: 6.00 Build 0)  -->
<!DOCTYPE svg PUBLIC "-//W3C//DTD SVG 1.1//EN" "http://www.w3.org/Graphics/SVG/1.1/DTD/svg11.dtd">
<svg version="1.1" id="logo" xmlns="http://www.w3.org/2000/svg" xmlns:xlink="http://www.w3.org/1999/xlink" x="0px" y="0px"
	 width="384px" height="493px" viewBox="0 0 384 493" enable-background="new 0 0 384 493" xml:space="preserve">
<g class='line' fill-opacity="0">
	<path stroke="#000000" stroke-miterlimit="10" d="M187.689,116.856c0.483-1.495,0.707-2.833,1.328-3.95
		c0.831-1.492,1.969-2.814,2.975-4.21c1.285,1.357,3.31,2.521,3.723,4.106c1.335,5.11,2.799,10.361,2.896,15.583
		c0.217,11.297-0.641,22.612-0.573,33.917c0.063,10.649,2.291,20.735,9.465,29.238c3.263,3.867,0.396,15.857-4.289,17.416
		c-1.442,0.479-4.375-1.097-5.493-2.583c-2.143-2.841-3.475-6.295-5.587-10.35c-1.268,2.541-2.104,4.44-3.136,6.229
		c-1.395,2.423-2.633,5.043-4.49,7.073c-2.973,3.245-6.475,3.396-9.443-0.126c-2.656-3.153-5.002-6.568-7.988-10.539
		c-1.281,2.063-2.375,3.946-3.584,5.751c-2.592,3.864-4.992,8.542-10.253,8.566c-5.196,0.024-8.311-4.087-10.36-8.349
		c-2.951-6.132-5.316-12.545-7.956-18.828c-1.351-3.217-2.745-6.416-4.136-9.618c-1.873-4.316-4.508-6.836-9.893-6.366
		c-2.102,0.186-5.821-2.09-6.391-3.974c-0.976-3.227,1.912-4.678,5.214-4.938c7.323-0.578,12.709-4.094,14.989-11.279
		c2.853-8.988,1.172-17.195-4.906-24.501c-12.425-14.938-41.258-12.736-52.096,0.418c-4.561,5.534-4.457,15.558,1.064,19.638
		c2.563,1.895,6.34,2.148,10.141,3.324c-0.551,1.882-0.939,4.331-1.958,6.479c-2.679,5.653-7.429,6.941-12.757,3.728
		c-11.961-7.214-14.314-23.673-5.051-34.166c6.008-6.804,13.114-11.376,21.979-13.864c14.121-3.962,27.74-4.417,41.127,2.479
		c16.094,8.29,20.856,25.887,10.895,40.889c-1.287,1.938-2.559,3.959-4.199,5.577c-3.642,3.592-3.294,6.587-0.28,10.702
		c3.995,5.455,6.879,11.712,10.409,17.522c2.236,3.68,3.502,8.844,9.457,8.005c3.508-0.495,5.883-6.072,5.772-12.18
		c-0.201-11.104-0.942-22.259-0.167-33.302c0.539-7.674,3.23-15.197,4.991-22.78c0.147-0.636,0.541-1.212,0.8-1.825
		C174.066,115.944,177.361,114.202,187.689,116.856z M170.93,155.52c1.547,8.128,3.086,17.585,5.313,26.877
		c0.489,2.04,3.491,4.916,5.214,4.833c1.887-0.09,3.799-3.025,5.367-4.987c0.758-0.947,1.043-2.503,1.047-3.784
		c0.038-10.958,0.187-21.927-0.227-32.871c-0.113-3-1.561-6.229-3.246-8.793c-1.158-1.764-3.779-3.483-5.76-3.498
		c-1.592-0.011-4.182,2.315-4.621,4.041C172.641,142.742,172.072,148.352,170.93,155.52z"/>
	<path stroke="#000000" stroke-miterlimit="10" d="M103.893,467.993c-1.828,4.171-2.855,7.134-4.36,9.827
		c-3.444,6.167-7.396,6.679-12.14,1.609c-6.155-6.581-8.42-14.949-10.471-23.406c-0.596-2.452-1.508-4.827-2.275-7.237
		c-0.493,0.001-0.986,0.001-1.48,0.002c-1.289,2.768-2.287,5.724-3.932,8.259c-3.498,5.396-6.903,10.955-11.152,15.729
		c-4.144,4.657-8.987,4.913-13.769,0.896c-3.329-2.795-6.856-6.419-8.132-10.37c-2.523-7.818-4.083-16.059-5.047-24.24
		c-1.045-8.861-0.955-17.856-1.359-26.754c-9.465-1.149-11.369-3.446-9.68-11.961c2.838,0,5.771,0,9.475,0
		c-0.602-5.687-0.865-10.938-1.782-16.075c-0.915-5.127,1.034-9.196,3.986-12.864c1.072-1.332,3.566-2.711,4.895-2.318
		c1.381,0.407,2.819,2.849,3.028,4.548c0.482,3.943-0.048,8.007,0.379,11.963c0.364,3.373,1.49,6.665,2.279,9.992
		c3.142-1.227,6.844-1.775,9.302-3.821c4.536-3.776,8.683-8.164,12.332-12.814c2.303-2.933,3.672-2.689,5.782-0.319
		c3.804,4.271,4.141,10.091-0.844,14.18c-6.336,5.198-13.465,9.598-20.732,13.427c-3.756,1.979-6.078,3.039-5.44,8.086
		c1.017,8.052,0.505,16.286,1.369,24.366c0.54,5.045,1.95,10.131,3.813,14.867c2.379,6.04,10.875,6.947,14.623,1.204
		c3.291-5.044,5.964-10.938,7.162-16.811c2.651-12.988,4.115-26.218,6.275-39.313c0.448-2.72,1.512-5.447,2.813-7.894
		c3.384-6.366,8.439-7.487,14.466-3.384c0.682-1.078,1.036-1.613,1.367-2.165c1.037-1.728,2.064-3.46,3.096-5.189
		c1.525,1.786,3.93,3.36,4.418,5.396c1.616,6.733,2.916,13.595,3.632,20.479c0.788,7.592,0.798,15.265,1.144,22.901
		c0.584,12.916,1.719,25.568,11.954,35.315c3.084,2.938,1.323,14.712-2.496,16.753c-1.315,0.703-4.612-0.239-5.667-1.524
		C108.26,476.322,106.605,472.65,103.893,467.993z M80.21,420.193c-0.043,2.392,1.542,14.824,3.026,22.09
		c0.914,4.477,2.908,8.825,5.043,12.904c0.793,1.513,3.492,3.039,5.098,2.831c1.592-0.206,3.523-2.348,4.191-4.072
		c0.988-2.557,1.523-5.532,1.321-8.261c-0.646-8.737-1.399-17.494-2.763-26.141c-0.704-4.468-2.316-8.97-4.454-12.952
		c-0.969-1.808-4.497-3.616-6.339-3.185c-1.787,0.42-3.695,3.556-4.125,5.774C80.524,412.702,80.253,417.803,80.21,420.193z"/>
	<path stroke="#000000" stroke-miterlimit="10" d="M59.031,278.687c0.551-0.764,1.413-2.015,2.332-3.222
		c3.313-4.354,6.32-8.997,10.058-12.952c4.254-4.502,8.771-3.435,11.249,2.345c1.096,2.559,1.605,5.397,2.134,8.156
		c0.493,2.58,0.66,5.222,1.18,9.603c2.379-3.267,3.938-5.375,5.464-7.509c2.124-2.967,3.883-6.284,6.404-8.855
		c4.912-5.009,8.875-3.876,11.896,2.438c3.987,8.334,2.678,16.931,1.715,25.479c-1.152,10.219-3.242,20.354-3.943,30.594
		c-0.424,6.179,0.746,12.526,1.719,18.718c0.736,4.69-5.287,14.792-10.004,14.985c-1.562,0.063-3.746-1.867-4.74-3.454
		c-3.971-6.337-2.268-13.24-1.088-19.903c1.795-10.132,4.408-20.13,5.891-30.3c0.998-6.846,0.732-13.887,0.811-20.843
		c0.014-1.262-1.008-3.576-1.626-3.603c-1.631-0.067-4.251,0.373-4.804,1.463c-3.487,6.875-7.695,13.702-9.436,21.072
		c-2.811,11.901-3.805,24.223-5.776,36.332c-0.476,2.92-1.373,5.94-2.832,8.479c-1.187,2.064-3.505,3.48-5.32,5.186
		c-1.144-2.238-3.354-4.536-3.232-6.702c0.376-6.758,1.18-13.565,2.645-20.171c3.192-14.401,4.108-28.916,3.214-43.569
		c-0.103-1.69-1.422-3.308-2.177-4.958c-1.835,0.929-4.491,1.379-5.358,2.869c-3.08,5.3-5.854,10.827-8.193,16.495
		c-6.139,14.867-7.951,30.514-7.198,46.448c0.278,5.872-2.384,9.84-6.563,13.23c-3.479,2.823-6.257,1.876-7.149-2.553
		c-0.387-1.918-0.402-4.015-0.098-5.953c2.297-14.58,5.211-29.083,6.936-43.728c1.356-11.514,1.228-23.196,1.922-34.795
		c0.12-1.998,1.059-3.948,1.618-5.921c2.089,0.769,5.091,0.93,6.085,2.427C55.276,269.795,56.885,274.177,59.031,278.687z"/>
	<path stroke="#000000" stroke-miterlimit="10" d="M263.826,123.813c7.814-7.374,15.798-14.579,23.396-22.17
		c7.482-7.477,14.573-15.345,22.454-23.695c1.556,2.667,3.478,5.495,4.839,8.573c0.41,0.926-0.451,2.759-1.238,3.792
		c-1.088,1.424-3.241,2.239-3.873,3.757c-0.896,2.153-1.373,4.829-0.896,7.037c0.204,0.948,3.383,2.035,4.991,1.764
		c7.217-1.214,11.178,2.01,14.571,8.146c6.613,11.956,16.117,21.665,27.195,29.488c5.107,3.606,11.483,5.417,17.901,7.396
		c-2.435,0.262-4.862,0.639-7.304,0.765c-28.264,1.459-56.436,1.559-84.09-5.828c-6.373-1.703-7.726-5.173-3.74-10.533
		c4.84-6.513,10.884-11.555,18.422-14.869c3.784-1.664,7.449-3.811,7.545-8.95c0.057-3.085-0.801-4.984-4.18-4.44
		c-2.245,0.36-4.778,0.613-6.566,1.826c-6.299,4.268-12.322,8.94-18.47,13.434c-3.063,2.239-6.173,4.418-9.261,6.625
		C264.959,125.222,264.393,124.517,263.826,123.813z"/>
	<path stroke="#000000" stroke-miterlimit="10" d="M237.798,20.533C222.85,37.935,205.262,51.69,187.67,66.964
		c-1.751-3.172-3.246-5.813-4.68-8.486c-2.959-5.517-6.07-6.956-11.823-5.41c-4.479,1.204-5.968,3.971-5.802,10.161
		c0.268,9.98,0.463,19.964,0.568,29.947c0.037,3.461-0.527,6.738-5.64,6.878c-0.253-5.049-0.003-10.023-0.843-14.808
		c-1.873-10.678-6.885-20.059-13.256-28.733c-5.318-7.243-10.744-14.409-16.004-21.696c-4.066-5.636-3.689-6.486,2.92-8.03
		c5.323-1.244,10.664-2.424,15.955-3.795c4.128-1.07,6.881,0.229,8.102,4.307c1.896,6.34,3.666,12.72,5.49,19.083
		c1.506,5.255,2.661,5.509,6.797,1.977c7.57-6.465,14.896-13.301,22.98-19.06c12.558-8.947,26.998-11.588,42.221-10.233
		C235.395,19.131,236.087,19.714,237.798,20.533z"/>
	<path stroke="#000000" stroke-miterlimit="10" d="M89.684,124.69c9.685-2.962,15.952,1.496,17.185,10.407
		c1.108,8.014,0.938,16.215,2.209,24.194c2.88,18.087,1.549,36.894,9.196,54.19c1.563,3.537-2.025,7.582-7.924,9.595
		c-4.229,1.44-6.011-0.912-6.598-4.447c-2.336-14.062-4.618-28.132-6.715-42.23C94.501,159.344,92.172,142.257,89.684,124.69z"/>
	<path stroke="#000000" stroke-miterlimit="10" d="M232.404,86.256c3.919-3.672,7.893-7.289,11.746-11.029
		c8.226-7.983,16.394-16.028,24.566-24.064c0.59-0.578,1.336-1.238,1.492-1.972c0.67-3.139,1.939-6.498,1.284-9.391
		c-0.246-1.089-5.104-1.221-7.888-1.604c-1.06-0.146-2.188,0.231-3.805,0.437c1.629-3.889,3.045-7.274,4.779-11.418
		c17.388,10.97,30.318,25.452,41.102,43.421c-4.369,0.982-7.91,1.778-12.734,2.862c1.104-2.596,1.83-4.122,2.408-5.702
		c2.082-5.67,0.205-8.073-5.648-7.228c-2.575,0.373-5.132,0.87-7.523,1.281c0.215-4.671,0.416-9.063,0.616-13.453
		c-0.553-0.176-1.104-0.351-1.657-0.526c-16.215,12.744-27.599,31.45-47.227,39.986C233.412,87.323,232.908,86.79,232.404,86.256z"
		/>
	<path stroke="#000000" stroke-miterlimit="10" d="M198.63,83.011c-4.935-5-4.917-5.801-0.423-10.526
		c12.184-12.808,25.277-24.473,40.968-32.909c1.136-0.61,2.31-1.148,3.81-1.316C231.26,56.238,210.963,65.693,198.63,83.011z"/>
	<path stroke="#000000" stroke-miterlimit="10" d="M256.16,50.342c-1.792,2.097-2.693,3.423-3.852,4.464
		c-7.675,6.896-15.601,13.527-23.054,20.652c-5.751,5.499-10.892,11.632-16.411,17.379c-0.896,0.933-2.951,2.176-3.439,1.828
		c-2.107-1.501-3.891-3.491-5.557-5.498c-0.108-0.13,1.659-1.997,2.704-2.879c10.396-8.788,20.955-17.392,31.192-26.36
		C243.537,54.854,249.813,50.92,256.16,50.342z"/>
	<path stroke="#000000" stroke-miterlimit="10" d="M277.523,74.085c-1.119,1.291-2.123,2.706-3.373,3.853
		c-9.172,8.415-18.444,16.723-27.576,25.182c-4.262,3.947-8.213,8.228-12.461,12.19c-0.828,0.773-3.199,1.368-3.442,1.03
		c-0.846-1.181-1.19-2.785-1.458-4.276c-0.082-0.458,0.631-1.128,1.084-1.602c12.984-13.627,26.248-26.926,43.063-35.96
		c1.082-0.582,2.338-0.843,3.513-1.252C277.089,73.529,277.307,73.807,277.523,74.085z"/>
	<path stroke="#000000" stroke-miterlimit="10" d="M286.714,87.158c-1.177,1.284-2.291,2.633-3.538,3.845
		c-11.568,11.243-23.207,22.417-34.723,33.715c-3.816,3.745-6.081,0.859-9.387-1.944c16.947-10.914,28.697-27.715,46.42-37.029
		C285.896,86.215,286.305,86.687,286.714,87.158z"/>
	<path stroke="#000000" stroke-miterlimit="10" d="M125.285,221.54c0.286-0.829,0.458-2.682,1.436-3.873
		c1.787-2.176,4.05-3.962,6.115-5.912c1.367,2.274,3.154,4.4,4.024,6.853c2.429,6.839,4.527,13.798,6.625,20.748
		c0.335,1.111,0.155,2.47-0.155,3.612c-0.069,0.254-1.773,0.315-2.604,0.067C134.418,241.154,125.149,228.671,125.285,221.54z"/>
	<path stroke="#000000" stroke-miterlimit="10" d="M227.404,152.944c1.586,9.6-0.668,12.414-9.76,13.111
		c-5.398,0.413-10.766,1.249-17.234,0.889c1.533-2.026,2.646-5.042,4.675-5.904C212.346,157.951,219.914,155.593,227.404,152.944z"
		/>
	<path stroke="#000000" stroke-miterlimit="10" d="M201.15,337.887c-0.387,1.509-0.465,3.113-1.195,4.323
		c-0.869,1.438-2.137,3.229-3.541,3.562c-1.037,0.245-3.329-1.352-3.73-2.567c-1.036-3.139-1.87-6.551-1.688-9.793
		c0.083-1.491,2.681-3.881,4.229-3.954c1.473-0.071,3.352,2.139,4.51,3.736C200.635,334.437,200.704,336.282,201.15,337.887z"/>
	<path stroke="#000000" stroke-miterlimit="10" d="M306.461,372.245c-0.125-0.327-0.729-0.471-0.697-0.452
		c-0.881,6.31-0.979,12.899-2.854,18.936c-2.297,7.391-9.623,9.103-14.996,3.522c-3.803-3.947-6.612-9.101-8.876-14.159
		c-0.947-2.114,0.215-5.562,1.237-8.068c1.301-3.184,3.963-5.837,5.123-9.051c6.539-18.112,4.42-35.763-4.241-52.584
		c-1.499-2.912-5.489-5.882-8.647-6.278c-4.435-0.556-6.601,3.928-7.822,7.829c-3.75,11.99-6.052,24.132-4.002,36.825
		c0.771,4.782,0.565,9.721,0.806,14.588c-0.396,0.113-0.792,0.227-1.188,0.34c-1.134-2.45-2.121-4.983-3.434-7.335
		c-2.971-5.327-5.839-10.744-9.273-15.766c-1.888-2.756-5.014-2.395-6.49,0.604c-1.795,3.645-3.056,7.61-4.067,11.561
		c-0.834,3.253-0.968,6.688-1.552,11.104c-4.946-5.127-7.18-11.89-15.26-12.278c1.488,5.115,2.506,9.761,4.176,14.155
		c6.775,17.826,10.035,36.154,8.541,55.238c-0.271,3.476-0.108,7.962-4.281,8.422c-1.859,0.205-5.051-3.311-6.128-5.79
		c-5.841-13.435-10.286-27.28-11.738-42.027c-0.696-7.065-2.301-14.097-4.138-20.972c-0.932-3.482-2.572-8.852-6.883-7.737
		c-4.229,1.095-3.024,6.39-2.356,10.09c2.002,11.089,4.399,22.11,6.187,33.229c0.53,3.309,0.093,7.031-0.936,10.232
		c-0.594,1.85-3.254,3.036-4.984,4.522c-1.125-1.594-2.682-3.036-3.313-4.807c-3.895-10.941-7.326-22.053-11.466-32.896
		c-1.568-4.106-4.345-7.864-7.131-11.329c-0.872-1.084-4.43-1.619-5.306-0.817c-4.68,4.282-8.762,9.151-9.506,15.886
		c-0.499,4.516-0.998,9.031-1.498,13.548c-1.617-1.055-2.164-2.435-2.843-3.747c-2.651-5.116-4.671-10.74-8.183-15.182
		c-4.834-6.113-10.791-5.215-14.988,1.418c-1.48,2.34-2.639,4.885-3.996,7.433c-5.013-1.968-8.045-7.888-14.7-5.978
		c0.089,1.843-0.049,3.667,0.294,5.396c4.984,25.095,9.999,50.183,15.088,75.254c1.388,6.836,2.69,13.724,4.678,20.395
		c2.107,7.064,8.322,10.403,14.29,8.482c-3.446-15.208-6.895-30.427-10.364-45.735c18.111-1.017,17.746-15.614,22.154-26.788
		c0.944,1.707,1.415,3.378,1.842,5.061c2.409,9.482,4.274,19.146,7.352,28.406c3.299,9.926,7.187,19.783,15.029,27.32
		c6.366,6.121,11.363,5.037,14.749-3.195c0.442-1.074,1.024-2.196,1.06-3.31c0.236-7.439,0.438-14.884,0.463-22.326
		c0.024-6.817-4.43-14.486,4.008-19.613c0.621-0.376,0.746-1.486,1.267-2.117c0.792-0.958,1.729-1.796,2.604-2.685
		c0.791,1.094,1.763,2.099,2.342,3.294c3.685,7.601,6.912,15.457,11.123,22.749c1.367,2.369,5.396,4.728,7.899,4.438
		c2.04-0.236,4.185-4.207,5.269-6.926c1.394-3.499,1.774-7.4,2.592-11.13c2.671,3.724,4.012,7.609,5.826,11.256
		c0.808,1.626,2.837,4.067,3.839,3.859c1.731-0.359,3.725-2.233,4.446-3.958c0.811-1.935,0.899-4.571,0.313-6.621
		c-2.28-7.98-5.344-15.748-7.39-23.78c-3.659-14.374-6.189-28.959-4.48-43.894c0.194-1.688,1.557-4.423,2.637-4.557
		c1.728-0.212,4.267,0.873,5.39,2.271c1.833,2.28,2.995,5.179,4.083,7.956c1.158,2.956,1.037,7.471,6.162,3.605
		c0.363-0.275,1.693,0.225,2.205,0.733c2.373,2.37,5.578,4.488,6.73,7.391c4.053,10.197,8.946,19.646,17.318,27.06
		c7.717,6.832,15.316,5.857,19.962-3.307C311.699,397.299,311.258,384.772,306.461,372.245z M150.63,419.539
		c-0.704,2.606-3.043,5.846-5.397,6.665c-3.107,1.083-5.429-1.683-7.158-4.76c-5.744-10.229-4.373-21.247-3.67-32.083
		c0.145-2.241,3.011-5.199,5.325-6.192c3.388-1.454,6.181,1.027,7.244,4.308c2.07,6.388,4.401,17.48,4.569,19.705
		C151.711,409.405,151.688,415.625,150.63,419.539z M191.013,449.437c-1.915,0.327-4.502,0.088-5.95-1.035
		c-2.008-1.559-3.667-3.946-4.707-6.315c-8.15-18.576-14.178-37.648-12.395-58.345c0.14-1.627,0.632-3.224,0.959-4.835
		c0.604-0.012,1.208-0.022,1.813-0.035c1.948,5.6,3.438,11.412,5.951,16.744c4.084,8.664,8.875,16.993,13.283,25.507
		c1.126,2.177,2.59,4.468,2.764,6.79l0.158,17.453C192.846,446.813,191.875,449.289,191.013,449.437z M268.917,357.733
		c-0.763-3.107-1.769-5.447-1.834-7.813c-0.206-7.297-0.378-14.625,0.104-21.896c0.222-3.366,0.302-8.638,4.73-8.598
		c2.416,0.022,5.602,4.076,7.041,7.002c5.348,10.869-1.072,19.717-5.93,28.665C272.452,356.158,270.738,356.607,268.917,357.733z"/>
	<path stroke="#000000" stroke-miterlimit="10" d="M120.908,243.52c-3.565-3.549-7.604-7.215-12.155-9.06
		c-10.62-4.306-21.656-7.594-32.548-11.223c-19.481-6.488-31.477-19.817-36.239-39.689c-0.925-3.862-2.982-5.423-6.955-5.611
		c-2.883-0.138-5.86-1.061-8.51-2.263c-1.46-0.663-3.143-2.588-3.207-4.012c-0.048-1.101,2.084-2.68,3.56-3.404
		c11.629-5.712,12.022-3.234,6.332-18.161c-0.06-0.154-0.136-0.304-0.224-0.446c-2.708-4.337-5.05-10.228-11.021-9.371
		c-5.981,0.859-9.018,6.28-10.886,11.89c-0.103,0.309-0.071,0.662-0.138,0.987c-2.393,11.621-0.096,22.941,5.383,32.806
		c12.885,23.21,31.836,39.996,57.572,47.972c13.533,4.195,26.457,8.927,35.66,20.563c1.513,1.912,4.264,2.844,7.196,4.707
		c2.361-1.992,4.842-3.408,6.355-5.519C123.378,250.482,123.739,246.34,120.908,243.52z M23.074,158.826
		c0.137-1.341,1.639-2.541,2.522-3.805c1.676,1.818,3.351,3.636,5.779,6.271c-2.232,1.813-3.389,3.549-4.588,3.579
		C22.6,164.977,22.795,161.548,23.074,158.826z"/>
	<path stroke="#000000" stroke-miterlimit="10" d="M265.546,268.381c-0.362-4.234-1.955-8.362-2.989-12.539
		c-0.568,0.081-1.138,0.163-1.705,0.244c-0.301,4.854-0.605,9.709-0.904,14.563c-0.291,4.749-3.799,10.192-7.194,11.148
		c-5.451,1.535-11.089-0.697-15.077-5.507c-3.623-4.37-2.467-8.169-0.078-12.755c8.162-15.678,8.723-31.465-0.68-46.999
		c-4.671-7.72-10.508-8.026-15.438-0.604c-1.537,2.313-2.599,5-3.537,7.636c-3.299,9.285-2.321,19.006-0.446,28.105
		c2.399,11.643,1.457,22.801-0.802,34.072c-0.775,3.876-2.209,7.708-3.957,11.258c-0.698,1.417-3.024,2.653-4.678,2.748
		c-1.004,0.057-2.365-2.104-3.15-3.5c-0.622-1.103-0.797-2.552-0.852-3.862c-0.408-9.799-0.58-19.612-1.144-29.403
		c-0.447-7.783-0.918-15.612-2.204-23.283c-0.721-4.302-2.646-8.6-4.883-12.396c-2.729-4.632-6.634-4.864-9.46-0.346
		c-3.129,5.002-5.203,10.685-7.529,16.159c-1.118,2.628-1.763,5.457-2.945,9.228c-5.543-17.202-7.766-19.971-15.004-19.026
		c0.15,1.273,0.292,2.555,0.455,3.829c1.199,9.382,2.547,18.745,3.57,28.144c1.937,17.782-3.159,34.284-9.889,50.348
		c-1.837,4.388-4.554,8.579-7.605,12.248c-5.433,6.533-14.216,5.356-16.629-2.175c-1.756-5.487-3.264-11.414,3.108-15.558
		c1.094-0.711,1.928-1.831,2.858-2.784c11.801-12.106,17.604-26.6,15.971-43.456c-0.393-4.061-3.135-8.229-5.726-11.644
		c-2.454-3.235-6.321-3.023-9.212-0.061c-3.112,3.19-6.474,6.424-8.578,10.268c-10.943,20.002-14.555,41.561-11.959,64.08
		c0.655,5.696,2.401,11.424,4.587,16.75c3.272,7.975,8.891,10.145,16.862,7.161c12.021-4.501,18.416-14.23,23.128-25.44
		c0.813-1.932,1.677-3.843,2.516-5.764c0.523,0.033,1.046,0.066,1.569,0.101c0.364,2.022,0.746,4.039,1.085,6.065
		c0.297,1.786,0.293,3.665,0.865,5.353c1.425,4.194,3.929,4.626,6.871,1.333c4.082-4.565,5.082-9.863,4.034-15.811
		c-2.705-15.356-2.715-30.809-0.551-46.193c1.034-7.353,2.994-14.598,4.94-21.781c0.428-1.574,2.58-2.683,3.937-4.006
		c0.985,1.58,2.638,3.08,2.841,4.756c1.197,9.878,2.318,19.778,2.958,29.706c0.662,10.278,0.367,20.63,1.267,30.879
		c0.376,4.288,2.14,8.768,4.374,12.5c3.165,5.284,7.111,5.272,10.59,0.236c2.423-3.512,4.675-7.434,5.782-11.504
		c2.739-10.068,4.763-20.332,7.124-30.506c0.268-1.154,0.861-2.233,1.77-4.52c2.141,3.496,3.354,6.26,5.256,8.416
		c3.799,4.306,7.469,9.019,12.123,12.206c6.064,4.153,11.43,2.959,16.623-2.271C264.95,287.029,266.363,277.903,265.546,268.381z
		 M131.615,271.621c0.945-1.806,4.051-2.996,6.317-3.302c0.763-0.103,2.695,3.345,2.925,5.307
		c1.137,9.715-1.371,18.493-7.957,25.876c-1.31,1.469-3.1,2.512-5.457,4.374C126.322,291.879,126.523,281.342,131.615,271.621z
		 M229.96,256.338c-4.796-10.571-5.993-20.102-4.017-29.922c0.735-3.65,3.795-3.385,6.336-1.816
		c1.307,0.807,2.854,2.403,2.973,3.758c0.672,7.736,2.001,15.604-1.697,23.014C232.857,252.766,231.717,253.942,229.96,256.338z"/>
</g>
</svg>
